<?xml version="1.0" encoding="utf-8"?>
<!-- Generator: Adobe Illustrator 16.0.5, SVG Export Plug-In . SVG Version: 6.00 Build 0)  -->
<!DOCTYPE svg PUBLIC "-//W3C//DTD SVG 1.1//EN" "http://www.w3.org/Graphics/SVG/1.1/DTD/svg11.dtd">
<svg version="1.1" id="Layer_1" xmlns="http://www.w3.org/2000/svg" xmlns:xlink="http://www.w3.org/1999/xlink" x="0px" y="0px"
	 width="86.447px" height="86.446px" viewBox="0 0 86.447 86.446" enable-background="new 0 0 86.447 86.446" xml:space="preserve">
<g>
	<path d="M0.5,0.5v85.446h85.447V0.5H0.5z M43.223,69.265c-14.383,0-26.042-11.659-26.042-26.042S28.84,17.181,43.223,17.181
		S69.265,28.84,69.265,43.223S57.606,69.265,43.223,69.265z"/>
	<path fill="#FFFFFF" d="M86.447,86.446H0V0h86.447V86.446z M1,85.446h84.447V1H1V85.446z M43.223,69.765
		c-14.636,0-26.542-11.907-26.542-26.542s11.906-26.542,26.542-26.542s26.542,11.907,26.542,26.542S57.859,69.765,43.223,69.765z
		 M43.223,17.681c-14.084,0-25.542,11.458-25.542,25.542s11.458,25.542,25.542,25.542s25.542-11.458,25.542-25.542
		S57.307,17.681,43.223,17.681z"/>
</g>
</svg>
