<?xml version="1.0" encoding="UTF-8"?>
<svg width="39px" height="25px" viewBox="0 0 39 25" version="1.1" xmlns="http://www.w3.org/2000/svg" xmlns:xlink="http://www.w3.org/1999/xlink">
    <!-- Generator: Sketch 45.2 (43514) - http://www.bohemiancoding.com/sketch -->
    <title>mastercard</title>
    <desc>Created with Sketch.</desc>
    <defs></defs>
    <g id="Symbols" stroke="none" stroke-width="1" fill="none" fill-rule="evenodd">
        <g id="Desktop-Footer" transform="translate(-1209.000000, -414.000000)">
            <g id="Footer">
                <g id="accepted-payment" transform="translate(0.000000, 380.000000)">
                    <g id="logos" transform="translate(1100.000000, 34.000000)">
                        <g id="mastercard" transform="translate(109.000000, 0.000000)">
                            <rect id="XMLID_21_" fill="#000000" x="0.183529412" y="0.185185185" width="38.61" height="24.6296296"></rect>
                            <path d="M10.9658824,22.7546296 L10.9658824,21.3657407 C10.9658824,20.8333333 10.6447059,20.4861111 10.1170588,20.4861111 C9.84176471,20.4861111 9.54352941,20.5787037 9.33705882,20.8796296 C9.17647059,20.625 8.94705882,20.4861111 8.60294118,20.4861111 C8.37352941,20.4861111 8.12117647,20.5555556 7.93764706,20.8101852 L7.93764706,20.5324074 L7.50176471,20.5324074 L7.50176471,22.7546296 L7.93764706,22.7546296 L7.93764706,21.4814815 C7.93764706,21.087963 8.16705882,20.9027778 8.48823529,20.9027778 C8.80941176,20.9027778 8.99294118,21.1111111 8.99294118,21.4814815 L8.99294118,22.7546296 L9.42882353,22.7546296 L9.42882353,21.4814815 C9.42882353,21.087963 9.65823529,20.9027778 9.97941176,20.9027778 C10.3005882,20.9027778 10.4841176,21.1111111 10.4841176,21.4814815 L10.4841176,22.7546296 L10.9658824,22.7546296 Z M18.1235294,20.5555556 L17.3205882,20.5555556 L17.3205882,19.8842593 L16.8847059,19.8842593 L16.8847059,20.5555556 L16.4258824,20.5555556 L16.4258824,20.9490741 L16.8847059,20.9490741 L16.8847059,21.9907407 C16.8847059,22.5 17.0682353,22.8009259 17.6188235,22.8009259 C17.8252941,22.8009259 18.0547059,22.7314815 18.2152941,22.6388889 L18.0776471,22.2453704 C17.94,22.337963 17.7794118,22.3611111 17.6647059,22.3611111 C17.4352941,22.3611111 17.3205882,22.2222222 17.3205882,21.9907407 L17.3205882,20.9259259 L18.1235294,20.9259259 L18.1235294,20.5555556 Z M22.2070588,20.4861111 C21.9317647,20.4861111 21.7252941,20.625 21.6105882,20.8101852 L21.6105882,20.5324074 L21.1747059,20.5324074 L21.1747059,22.7546296 L21.6105882,22.7546296 L21.6105882,21.5046296 C21.6105882,21.1342593 21.7941176,20.9027778 22.0923529,20.9027778 C22.1841176,20.9027778 22.2988235,20.9259259 22.3905882,20.9490741 L22.5282353,20.5324074 C22.4364706,20.5092593 22.2988235,20.4861111 22.2070588,20.4861111 L22.2070588,20.4861111 Z M16.0358824,20.7175926 C15.8064706,20.5555556 15.4852941,20.4861111 15.1411765,20.4861111 C14.5905882,20.4861111 14.2464706,20.7407407 14.2464706,21.1805556 C14.2464706,21.5509259 14.4988235,21.7592593 14.9805882,21.8287037 L15.21,21.8518519 C15.4623529,21.8981481 15.6229412,21.9907407 15.6229412,22.1064815 C15.6229412,22.2685185 15.4394118,22.3842593 15.0952941,22.3842593 C14.7511765,22.3842593 14.5217647,22.2685185 14.3611765,22.1527778 L14.1317647,22.5 C14.4529412,22.7314815 14.8429412,22.7777778 15.0723529,22.7777778 C15.7147059,22.7777778 16.0588235,22.4768519 16.0588235,22.0601852 C16.0588235,21.6666667 15.7835294,21.4814815 15.3017647,21.412037 L15.0723529,21.3888889 C14.8658824,21.3657407 14.6823529,21.2962963 14.6823529,21.1574074 C14.6823529,20.9953704 14.8658824,20.8796296 15.1182353,20.8796296 C15.3935294,20.8796296 15.6688235,20.9953704 15.8064706,21.0648148 L16.0358824,20.7175926 Z M22.6888235,21.6435185 C22.6888235,22.3148148 23.1247059,22.8009259 23.8358824,22.8009259 C24.1570588,22.8009259 24.3864706,22.7314815 24.6158824,22.5462963 L24.3864706,22.1990741 C24.2029412,22.337963 24.0194118,22.4074074 23.8129412,22.4074074 C23.4229412,22.4074074 23.1247059,22.1064815 23.1247059,21.6666667 C23.1247059,21.2268519 23.4229412,20.9259259 23.8129412,20.9259259 C24.0194118,20.9259259 24.2029412,20.9953704 24.3864706,21.1342593 L24.6158824,20.787037 C24.3864706,20.6018519 24.1570588,20.5324074 23.8358824,20.5324074 C23.1476471,20.4861111 22.6888235,20.9722222 22.6888235,21.6435185 L22.6888235,21.6435185 Z M19.6147059,20.4861111 C18.9723529,20.4861111 18.5364706,20.9490741 18.5364706,21.6435185 C18.5364706,22.337963 18.9952941,22.8009259 19.6605882,22.8009259 C19.9817647,22.8009259 20.3029412,22.7083333 20.5552941,22.5 L20.3258824,22.1759259 C20.1423529,22.3148148 19.9129412,22.4074074 19.6835294,22.4074074 C19.3852941,22.4074074 19.0641176,22.2222222 19.0182353,21.8287037 L20.6470588,21.8287037 L20.6470588,21.6435185 C20.6470588,20.9490741 20.2341176,20.4861111 19.6147059,20.4861111 L19.6147059,20.4861111 Z M19.5917647,20.9027778 C19.9129412,20.9027778 20.1423529,21.1111111 20.1652941,21.4583333 L18.9723529,21.4583333 C19.0411765,21.1342593 19.2476471,20.9027778 19.5917647,20.9027778 L19.5917647,20.9027778 Z M13.65,21.6435185 L13.65,20.5324074 L13.2141176,20.5324074 L13.2141176,20.8101852 C13.0535294,20.6018519 12.8241176,20.4861111 12.5029412,20.4861111 C11.8835294,20.4861111 11.4247059,20.9722222 11.4247059,21.6435185 C11.4247059,22.3148148 11.8835294,22.8009259 12.5029412,22.8009259 C12.8241176,22.8009259 13.0535294,22.6851852 13.2141176,22.4768519 L13.2141176,22.7546296 L13.65,22.7546296 L13.65,21.6435185 Z M11.8835294,21.6435185 C11.8835294,21.2268519 12.1358824,20.9027778 12.5717647,20.9027778 C12.9847059,20.9027778 13.2370588,21.2268519 13.2370588,21.6435185 C13.2370588,22.0833333 12.9617647,22.3842593 12.5717647,22.3842593 C12.1358824,22.4074074 11.8835294,22.0601852 11.8835294,21.6435185 L11.8835294,21.6435185 Z M28.8370588,20.4861111 C28.5617647,20.4861111 28.3552941,20.625 28.2405882,20.8101852 L28.2405882,20.5324074 L27.8047059,20.5324074 L27.8047059,22.7546296 L28.2405882,22.7546296 L28.2405882,21.5046296 C28.2405882,21.1342593 28.4241176,20.9027778 28.7223529,20.9027778 C28.8141176,20.9027778 28.9288235,20.9259259 29.0205882,20.9490741 L29.1582353,20.5324074 C29.0664706,20.5092593 28.9288235,20.4861111 28.8370588,20.4861111 L28.8370588,20.4861111 Z M27.1394118,21.6435185 L27.1394118,20.5324074 L26.7035294,20.5324074 L26.7035294,20.8101852 C26.5429412,20.6018519 26.3135294,20.4861111 25.9923529,20.4861111 C25.3729412,20.4861111 24.9141176,20.9722222 24.9141176,21.6435185 C24.9141176,22.3148148 25.3729412,22.8009259 25.9923529,22.8009259 C26.3135294,22.8009259 26.5429412,22.6851852 26.7035294,22.4768519 L26.7035294,22.7546296 L27.1394118,22.7546296 L27.1394118,21.6435185 Z M25.3729412,21.6435185 C25.3729412,21.2268519 25.6252941,20.9027778 26.0611765,20.9027778 C26.4741176,20.9027778 26.7264706,21.2268519 26.7264706,21.6435185 C26.7264706,22.0833333 26.4511765,22.3842593 26.0611765,22.3842593 C25.6252941,22.4074074 25.3729412,22.0601852 25.3729412,21.6435185 L25.3729412,21.6435185 Z M31.5670588,21.6435185 L31.5670588,19.6527778 L31.1311765,19.6527778 L31.1311765,20.8101852 C30.9705882,20.6018519 30.7411765,20.4861111 30.42,20.4861111 C29.8005882,20.4861111 29.3417647,20.9722222 29.3417647,21.6435185 C29.3417647,22.3148148 29.8005882,22.8009259 30.42,22.8009259 C30.7411765,22.8009259 30.9705882,22.6851852 31.1311765,22.4768519 L31.1311765,22.7546296 L31.5670588,22.7546296 L31.5670588,21.6435185 Z M29.8005882,21.6435185 C29.8005882,21.2268519 30.0529412,20.9027778 30.4888235,20.9027778 C30.9017647,20.9027778 31.1541176,21.2268519 31.1541176,21.6435185 C31.1541176,22.0833333 30.8788235,22.3842593 30.4888235,22.3842593 C30.0529412,22.4074074 29.8005882,22.0601852 29.8005882,21.6435185 Z" id="XMLID_567_" fill="#FFFFFF"></path>
                            <rect id="Rectangle-path" fill="#FF5F00" x="15.5311765" y="3.68055556" width="7.96058824" height="13.1018519"></rect>
                            <path d="M16.3341176,10.2314815 C16.3341176,7.56944444 17.5729412,5.20833333 19.4770588,3.68055556 C18.0776471,2.56944444 16.3111765,1.89814815 14.3841176,1.89814815 C9.81882353,1.89814815 6.12529412,5.625 6.12529412,10.2314815 C6.12529412,14.837963 9.81882353,18.5648148 14.3841176,18.5648148 C16.3111765,18.5648148 18.0776471,17.8935185 19.4770588,16.7824074 C17.5729412,15.2546296 16.3341176,12.8935185 16.3341176,10.2314815 Z" id="XMLID_330_" fill="#EB001B"></path>
                            <path d="M32.8517647,10.2314815 C32.8517647,14.837963 29.1582353,18.5648148 24.5929412,18.5648148 C22.6658824,18.5648148 20.8994118,17.8935185 19.5,16.7824074 C21.4270588,15.2546296 22.6429412,12.8935185 22.6429412,10.2314815 C22.6429412,7.56944444 21.4041176,5.20833333 19.5,3.68055556 C20.8994118,2.56944444 22.6658824,1.89814815 24.5929412,1.89814815 C29.1582353,1.89814815 32.8517647,5.625 32.8517647,10.2314815 Z" id="Shape" fill="#F79E1B"></path>
                        </g>
                    </g>
                </g>
            </g>
        </g>
    </g>
</svg>