<?xml version="1.0" encoding="UTF-8"?>
<svg width="69px" height="41px" viewBox="0 0 69 41" version="1.1" xmlns="http://www.w3.org/2000/svg" xmlns:xlink="http://www.w3.org/1999/xlink">
    <!-- Generator: Sketch 45.2 (43514) - http://www.bohemiancoding.com/sketch -->
    <title>MasterCard-light</title>
    <desc>Created with Sketch.</desc>
    <defs>
        <path d="M0,4.99422945 C0,2.23599269 2.23104733,0 4.99277507,0 L363.007225,0 C365.764658,0 368,2.24713778 368,4.99422945 L368,105.005771 C368,107.764007 365.768953,110 363.007225,110 L4.99277507,110 C2.23534154,110 0,107.752862 0,105.005771 L0,4.99422945 Z" id="path-1"></path>
        <rect id="path-2" x="0" y="0" width="68.9655172" height="40" rx="4"></rect>
        <filter x="-0.7%" y="-1.2%" width="101.5%" height="105.0%" filterUnits="objectBoundingBox" id="filter-3">
            <feOffset dx="0" dy="1" in="SourceAlpha" result="shadowOffsetOuter1"></feOffset>
            <feComposite in="shadowOffsetOuter1" in2="SourceAlpha" operator="out" result="shadowOffsetOuter1"></feComposite>
            <feColorMatrix values="0 0 0 0 0   0 0 0 0 0   0 0 0 0 0  0 0 0 0.1 0" type="matrix" in="shadowOffsetOuter1"></feColorMatrix>
        </filter>
    </defs>
    <g id="Checkout" stroke="none" stroke-width="1" fill="none" fill-rule="evenodd">
        <g id="1-Desktop-checkout-Delivery-Billing-Address" transform="translate(-1124.000000, -640.000000)">
            <g id="Order-Summary" transform="translate(972.000000, 173.000000)">
                <g id="accepted-payments" transform="translate(1.000000, 417.000000)">
                    <g id="bg-copy">
                        <use fill="#FFFFFF" fill-rule="evenodd" xlink:href="#path-1"></use>
                        <path stroke="#E5E5E5" stroke-width="1" d="M0.5,4.99422945 L0.5,105.005771 C0.5,107.480774 2.51553128,109.5 4.99277507,109.5 L363.007225,109.5 C365.491228,109.5 367.5,107.489448 367.5,105.005771 L367.5,4.99422945 C367.5,2.51922616 365.484469,0.5 363.007225,0.5 L4.99277507,0.5 C2.50877197,0.5 0.5,2.51055158 0.5,4.99422945 Z"></path>
                    </g>
                    <g id="credit-cards" transform="translate(60.000000, 50.000000)">
                        <g id="MasterCard-light" transform="translate(91.000000, 0.000000)">
                            <g id="Rectangle">
                                <use fill="black" fill-opacity="1" filter="url(#filter-3)" xlink:href="#path-2"></use>
                                <use fill="#FFFFFF" fill-rule="evenodd" xlink:href="#path-2"></use>
                                <rect stroke="#E5E5E5" stroke-width="1" x="0.5" y="0.5" width="67.9655172" height="39" rx="4"></rect>
                            </g>
                            <g id="logo" transform="translate(16.551724, 6.666667)" fill-rule="nonzero">
                                <path d="M6.5997919,27.0956637 L6.5997919,25.2994904 C6.5997919,24.6109574 6.16623284,24.161914 5.42298874,24.161914 C5.05136668,24.161914 4.64877613,24.2816589 4.37005959,24.6708298 C4.15328006,24.3415314 3.84359501,24.161914 3.37906745,24.161914 C3.0693824,24.161914 2.75969736,24.2517227 2.51194933,24.5810211 L2.51194933,24.2217865 L1.86161073,24.2217865 L1.86161073,27.0956637 L2.51194933,27.0956637 L2.51194933,25.509044 C2.51194933,25.0001282 2.79066587,24.7606385 3.22422493,24.7606385 C3.65778399,24.7606385 3.87456352,25.0300644 3.87456352,25.509044 L3.87456352,27.0956637 L4.52490211,27.0956637 L4.52490211,25.509044 C4.52490211,25.0001282 4.83458715,24.7606385 5.23717771,24.7606385 C5.67073677,24.7606385 5.8875163,25.0300644 5.8875163,25.509044 L5.8875163,27.0956637 L6.5997919,27.0956637 Z M16.2309968,24.2217865 L15.1780676,24.2217865 L15.1780676,23.3536361 L14.527729,23.3536361 L14.527729,24.2217865 L13.9393274,24.2217865 L13.9393274,24.7905747 L14.527729,24.7905747 L14.527729,26.1077684 C14.527729,26.7663653 14.8064456,27.1555361 15.5496897,27.1555361 C15.8284062,27.1555361 16.1380912,27.0657275 16.3548708,26.9459826 L16.1690597,26.4071306 C15.9832487,26.5268755 15.7664692,26.5568117 15.6116267,26.5568117 C15.3019416,26.5568117 15.1780676,26.3771944 15.1780676,26.0778322 L15.1780676,24.7905747 L16.2309968,24.7905747 L16.2309968,24.2217865 Z M21.7433905,24.161914 C21.3717685,24.161914 21.1240204,24.3415314 20.9691779,24.5810211 L20.9691779,24.2217865 L20.3188393,24.2217865 L20.3188393,27.0956637 L20.9691779,27.0956637 L20.9691779,25.4791078 C20.9691779,25.0001282 21.1859575,24.7307022 21.588548,24.7307022 C21.712422,24.7307022 21.8672645,24.7606385 21.9911386,24.7905747 L22.1769496,24.1918503 C22.0530756,24.161914 21.8672645,24.161914 21.7433905,24.161914 L21.7433905,24.161914 Z M13.4128629,24.4612762 C13.1031778,24.2517227 12.6696188,24.161914 12.2050912,24.161914 C11.4618471,24.161914 10.966351,24.5211487 10.966351,25.0899369 C10.966351,25.5689164 11.3379731,25.8383424 11.9883117,25.9281511 L12.2979967,25.9580873 C12.6386503,26.0179597 12.8244613,26.1077684 12.8244613,26.2574495 C12.8244613,26.467003 12.5767132,26.6166842 12.1431542,26.6166842 C11.7095951,26.6166842 11.3689416,26.467003 11.152162,26.3173219 L10.842477,26.7963015 C11.1831305,27.0357912 11.6476581,27.1555361 12.1121857,27.1555361 C12.9793038,27.1555361 13.4747999,26.7663653 13.4747999,26.2275133 C13.4747999,25.7185975 13.0722093,25.4491715 12.4528392,25.3593629 L12.1431542,25.3294267 C11.8644376,25.2994904 11.6476581,25.239618 11.6476581,25.0600007 C11.6476581,24.8504471 11.8644376,24.7307022 12.2050912,24.7307022 C12.5767132,24.7307022 12.9483353,24.8803833 13.1341463,24.970192 L13.4128629,24.4612762 Z M30.6932883,24.161914 C30.3216662,24.161914 30.0739182,24.3415314 29.9190757,24.5810211 L29.9190757,24.2217865 L29.2687371,24.2217865 L29.2687371,27.0956637 L29.9190757,27.0956637 L29.9190757,25.4791078 C29.9190757,25.0001282 30.1358552,24.7307022 30.5384458,24.7307022 C30.6623198,24.7307022 30.8171623,24.7606385 30.9410363,24.7905747 L31.1268474,24.1918503 C31.0029733,24.161914 30.8171623,24.161914 30.6932883,24.161914 L30.6932883,24.161914 Z M22.3937291,25.6587251 C22.3937291,26.5268755 23.0130992,27.1555361 23.9731228,27.1555361 C24.4066819,27.1555361 24.716367,27.0657275 25.026052,26.8262377 L24.716367,26.3173219 C24.4686189,26.4969393 24.2208709,26.5867479 23.9421543,26.5867479 C23.4156898,26.5867479 23.0440677,26.2275133 23.0440677,25.6587251 C23.0440677,25.1198731 23.4156898,24.7606385 23.9421543,24.7307022 C24.2208709,24.7307022 24.4686189,24.8205109 24.716367,25.0001282 L25.026052,24.4912125 C24.716367,24.2517227 24.4066819,24.161914 23.9731228,24.161914 C23.0130992,24.161914 22.3937291,24.7905747 22.3937291,25.6587251 L22.3937291,25.6587251 Z M28.401619,25.6587251 L28.401619,24.2217865 L27.7512804,24.2217865 L27.7512804,24.5810211 C27.5345008,24.3115951 27.2248158,24.161914 26.8222252,24.161914 C25.9860756,24.161914 25.335737,24.7905747 25.335737,25.6587251 C25.335737,26.5268755 25.9860756,27.1555361 26.8222252,27.1555361 C27.2557843,27.1555361 27.5654694,27.005855 27.7512804,26.736429 L27.7512804,27.0956637 L28.401619,27.0956637 L28.401619,25.6587251 Z M26.0170441,25.6587251 C26.0170441,25.1498093 26.3576977,24.7307022 26.9151308,24.7307022 C27.4415953,24.7307022 27.8132174,25.1198731 27.8132174,25.6587251 C27.8132174,26.1676408 27.4415953,26.5867479 26.9151308,26.5867479 C26.3576977,26.5568117 26.0170441,26.1676408 26.0170441,25.6587251 L26.0170441,25.6587251 Z M18.2439495,24.161914 C17.3768314,24.161914 16.7574613,24.7606385 16.7574613,25.6587251 C16.7574613,26.5568117 17.3768314,27.1555361 18.274918,27.1555361 C18.7084771,27.1555361 19.1420362,27.0357912 19.4826897,26.7663653 L19.1730047,26.3173219 C18.9252566,26.4969393 18.6155716,26.6166842 18.3058865,26.6166842 C17.903296,26.6166842 17.5007054,26.4370668 17.4077999,25.9281511 L19.6065637,25.9281511 L19.6065637,25.6886613 C19.6375322,24.7606385 19.0800992,24.161914 18.2439495,24.161914 L18.2439495,24.161914 Z M18.2439495,24.700766 C18.6465401,24.700766 18.9252566,24.9402558 18.9871936,25.3892991 L17.4387684,25.3892991 C17.5007054,25.0001282 17.779422,24.700766 18.2439495,24.700766 L18.2439495,24.700766 Z M34.3785403,25.6587251 L34.3785403,23.0842101 L33.7282017,23.0842101 L33.7282017,24.5810211 C33.5114222,24.3115951 33.2017371,24.161914 32.7991466,24.161914 C31.962997,24.161914 31.3126584,24.7905747 31.3126584,25.6587251 C31.3126584,26.5268755 31.962997,27.1555361 32.7991466,27.1555361 C33.2327056,27.1555361 33.5423907,27.005855 33.7282017,26.736429 L33.7282017,27.0956637 L34.3785403,27.0956637 L34.3785403,25.6587251 Z M31.9939655,25.6587251 C31.9939655,25.1498093 32.334619,24.7307022 32.8920521,24.7307022 C33.4185167,24.7307022 33.7901387,25.1198731 33.7901387,25.6587251 C33.7901387,26.1676408 33.4185167,26.5867479 32.8920521,26.5867479 C32.334619,26.5568117 31.9939655,26.1676408 31.9939655,25.6587251 L31.9939655,25.6587251 Z M10.2540754,25.6587251 L10.2540754,24.2217865 L9.60373682,24.2217865 L9.60373682,24.5810211 C9.38695729,24.3115951 9.07727225,24.161914 8.67468169,24.161914 C7.83853208,24.161914 7.18819348,24.7905747 7.18819348,25.6587251 C7.18819348,26.5268755 7.83853208,27.1555361 8.67468169,27.1555361 C9.10824075,27.1555361 9.4179258,27.005855 9.60373682,26.736429 L9.60373682,27.0956637 L10.2540754,27.0956637 L10.2540754,25.6587251 Z M7.83853208,25.6587251 C7.83853208,25.1498093 8.17918562,24.7307022 8.7366187,24.7307022 C9.26308328,24.7307022 9.63470533,25.1198731 9.63470533,25.6587251 C9.63470533,26.1676408 9.26308328,26.5867479 8.7366187,26.5867479 C8.17918562,26.5568117 7.83853208,26.1676408 7.83853208,25.6587251 Z" id="XMLID_1775_" fill="#000000"></path>
                                <rect id="Rectangle-path" fill="#FF5F00" x="13.1960833" y="2.39828146" width="9.75507887" height="16.943901"></rect>
                                <path d="M13.8154534,10.870232 C13.8154534,7.42756657 15.4877527,4.37407204 18.0581385,2.39828146 C16.1690597,0.961342859 13.7844849,0.0931924531 11.1831305,0.0931924531 C5.02039818,0.0931924531 0.0344689772,4.91292401 0.0344689772,10.870232 C0.0344689772,16.8275399 5.02039818,21.6472715 11.1831305,21.6472715 C13.7844849,21.6472715 16.1690597,20.7791211 18.0581385,19.3421825 C15.4877527,17.3963281 13.8154534,14.3128974 13.8154534,10.870232 Z" id="XMLID_330_" fill="#EB001B"></path>
                                <path d="M36.1127766,10.870232 C36.1127766,16.8275399 31.1268474,21.6472715 24.964115,21.6472715 C22.3627606,21.6472715 19.9781858,20.7791211 18.089107,19.3421825 C20.6904614,17.3663919 22.3317921,14.3128974 22.3317921,10.870232 C22.3317921,7.42756657 20.6594929,4.37407204 18.089107,2.39828146 C19.9781858,0.961342859 22.3627606,0.0931924531 24.964115,0.0931924531 C31.1268474,0.0931924531 36.1127766,4.94286024 36.1127766,10.870232 Z" id="Shape" fill="#F79E1B"></path>
                            </g>
                        </g>
                    </g>
                </g>
            </g>
        </g>
    </g>
</svg>