<?xml version="1.0" encoding="UTF-8"?>
<svg width="67px" height="40px" viewBox="0 0 67 40" version="1.1" xmlns="http://www.w3.org/2000/svg" xmlns:xlink="http://www.w3.org/1999/xlink">
    <!-- Generator: Sketch 45.2 (43514) - http://www.bohemiancoding.com/sketch -->
    <title>Paypal-light</title>
    <desc>Created with Sketch.</desc>
    <defs>
        <path d="M0,4.99422945 C0,2.23599269 2.23104733,0 4.99277507,0 L363.007225,0 C365.764658,0 368,2.24713778 368,4.99422945 L368,105.005771 C368,107.764007 365.768953,110 363.007225,110 L4.99277507,110 C2.23534154,110 0,107.752862 0,105.005771 L0,4.99422945 Z" id="path-1"></path>
        <rect id="path-2" x="0" y="1" width="67" height="39" rx="4"></rect>
        <filter x="-0.7%" y="-3.8%" width="101.5%" height="105.1%" filterUnits="objectBoundingBox" id="filter-3">
            <feOffset dx="0" dy="-1" in="SourceAlpha" result="shadowOffsetOuter1"></feOffset>
            <feComposite in="shadowOffsetOuter1" in2="SourceAlpha" operator="out" result="shadowOffsetOuter1"></feComposite>
            <feColorMatrix values="0 0 0 0 0   0 0 0 0 0   0 0 0 0 0  0 0 0 0.1 0" type="matrix" in="shadowOffsetOuter1"></feColorMatrix>
        </filter>
    </defs>
    <g id="Checkout" stroke="none" stroke-width="1" fill="none" fill-rule="evenodd">
        <g id="1-Desktop-checkout-Delivery-Billing-Address" transform="translate(-1214.000000, -640.000000)">
            <g id="Order-Summary" transform="translate(972.000000, 173.000000)">
                <g id="accepted-payments" transform="translate(1.000000, 417.000000)">
                    <g id="bg-copy">
                        <use fill="#FFFFFF" fill-rule="evenodd" xlink:href="#path-1"></use>
                        <path stroke="#E5E5E5" stroke-width="1" d="M0.5,4.99422945 L0.5,105.005771 C0.5,107.480774 2.51553128,109.5 4.99277507,109.5 L363.007225,109.5 C365.491228,109.5 367.5,107.489448 367.5,105.005771 L367.5,4.99422945 C367.5,2.51922616 365.484469,0.5 363.007225,0.5 L4.99277507,0.5 C2.50877197,0.5 0.5,2.51055158 0.5,4.99422945 Z"></path>
                    </g>
                    <g id="credit-cards" transform="translate(60.000000, 50.000000)">
                        <g id="Paypal-light" transform="translate(214.500000, 20.000000) scale(1, -1) translate(-214.500000, -20.000000) translate(181.000000, 0.000000)">
                            <g id="Rectangle">
                                <use fill="black" fill-opacity="1" filter="url(#filter-3)" xlink:href="#path-2"></use>
                                <use fill="#FFFFFF" fill-rule="evenodd" xlink:href="#path-2"></use>
                                <rect stroke="#E5E5E5" stroke-width="1" x="0.5" y="1.5" width="66" height="38" rx="4"></rect>
                            </g>
                            <g id="logo" transform="translate(12.000000, 15.000000)">
                                <path d="M29.4269884,8.13139423 C29.2461161,6.97470145 28.3391951,6.97470145 27.4617086,6.97470145 L26.9626034,6.97470145 L27.3128302,9.13435989 C27.3337329,9.26482021 27.4493376,9.3607958 27.5849918,9.3607958 L27.8140683,9.3607958 C28.4112881,9.3607958 28.9752342,9.3607958 29.2661656,9.02965925 C29.4402125,8.83147589 29.4926826,8.53731695 29.4269884,8.13139423 M29.0451943,11.1494317 L25.7365965,11.1494317 C25.5100795,11.1494317 25.3176894,10.9890569 25.2822828,10.7713461 L23.9445104,2.50830509 C23.9180621,2.34543743 24.0477441,2.19794248 24.216672,2.19794248 L25.9144826,2.19794248 C26.0727459,2.19794248 26.2075469,2.31012174 26.2322889,2.46218695 L26.6119501,4.80507151 C26.6469301,5.02278237 26.8397468,5.18315716 27.0658371,5.18315716 L28.1126782,5.18315716 C30.2921039,5.18315716 31.5501048,6.21022058 31.8785757,8.24648184 C32.0266009,9.13643728 31.8845479,9.83610347 31.4566826,10.3259529 C30.9861587,10.8644133 30.1521839,11.1494317 29.0451943,11.1494317" id="Shape" fill="#0079C1"></path>
                                <path d="M5.82840163,8.13139423 C5.64752934,6.97470145 4.74060838,6.97470145 3.86312182,6.97470145 L3.36401669,6.97470145 L3.71424345,9.13435989 C3.73514615,9.26482021 3.85075084,9.3607958 3.98640506,9.3607958 L4.21548152,9.3607958 C4.81270134,9.3607958 5.37664749,9.3607958 5.66757886,9.02965925 C5.84162578,8.83147589 5.89409581,8.53731695 5.82840163,8.13139423 M5.44660753,11.1494317 L2.13800971,11.1494317 C1.91149276,11.1494317 1.71910266,10.9890569 1.68369605,10.7713461 L0.345923651,2.50830509 C0.319475344,2.34543743 0.448730777,2.19794248 0.618085256,2.19794248 L2.19815827,2.19794248 C2.42424863,2.19794248 2.61663874,2.35831727 2.65204534,2.57561265 L3.01336333,4.80507151 C3.04834335,5.02278237 3.24116004,5.18315716 3.4672504,5.18315716 L4.51409143,5.18315716 C6.6935172,5.18315716 7.9515181,6.21022058 8.279989,8.24648184 C8.4280142,9.13643728 8.2859612,9.83610347 7.85809585,10.3259529 C7.38757195,10.8644133 6.55359713,11.1494317 5.44660753,11.1494317" id="Shape" fill="#00457C"></path>
                                <path d="M13.1278356,5.16495919 C12.9746914,4.28331332 12.2563212,3.69125613 11.3395888,3.69125613 C10.8801561,3.69125613 10.5120128,3.83542725 10.2756844,4.1079813 C10.0414889,4.37804248 9.95318565,4.76319126 10.0274115,5.19154983 C10.1698911,6.06571708 10.9002057,6.67647081 11.8028608,6.67647081 C12.2529086,6.67647081 12.6180658,6.53105326 12.8590867,6.25600634 C13.1018139,5.97888202 13.197369,5.59165585 13.1278356,5.16495919 M15.3358426,8.16845494 L13.7515037,8.16845494 C13.6158495,8.16845494 13.5002448,8.07247935 13.4789155,7.94160355 L13.4093821,7.51033663 L13.2988964,7.66655663 C12.955495,8.15142031 12.1906271,8.31387249 11.4270389,8.31387249 C9.67675819,8.31387249 8.18157571,7.02173364 7.89064433,5.20983089 C7.73920645,4.30574918 7.95420559,3.44196889 8.4806122,2.83910926 C8.96393367,2.28527611 9.65372257,2.05468541 10.475753,2.05468541 C11.8868981,2.05468541 12.6692561,2.93716224 12.6692561,2.93716224 L12.5984429,2.50838819 C12.5719946,2.34552052 12.70125,2.19802557 12.8710311,2.19802557 L14.2975333,2.19802557 C14.5240502,2.19802557 14.7164403,2.35798489 14.7518469,2.57569574 L15.6084308,7.85809232 C15.6348791,8.02095999 15.5051971,8.16845494 15.3358426,8.16845494" id="Shape" fill="#00457C"></path>
                                <path d="M36.726465,5.16495919 C36.5733208,4.28331332 35.8549506,3.69125613 34.9382182,3.69125613 C34.4787855,3.69125613 34.1106422,3.83542725 33.8743138,4.1079813 C33.6396917,4.37804248 33.5518151,4.76319126 33.626041,5.19154983 C33.7685205,6.06571708 34.4988351,6.67647081 35.4014902,6.67647081 C35.851538,6.67647081 36.2166952,6.53105326 36.4577161,6.25600634 C36.7004433,5.97888202 36.7959985,5.59165585 36.726465,5.16495919 M38.934472,8.16845494 L37.3501331,8.16845494 C37.2144789,8.16845494 37.0988742,8.07247935 37.0775449,7.94160355 L37.0080115,7.51033663 L36.8970992,7.66655663 C36.5541244,8.15142031 35.7892565,8.31387249 35.0256683,8.31387249 C33.2753876,8.31387249 31.7802051,7.02173364 31.4892737,5.20983089 C31.3378359,4.30574918 31.552835,3.44196889 32.0792416,2.83910926 C32.5625631,2.28527611 33.252352,2.05468541 34.0743824,2.05468541 C35.4855275,2.05468541 36.2678855,2.93716224 36.2678855,2.93716224 L36.1970723,2.50838819 C36.170624,2.34552052 36.2998794,2.19802557 36.4696605,2.19802557 L37.8961627,2.19802557 C38.1226796,2.19802557 38.3150697,2.35798489 38.3504763,2.57569574 L39.2070602,7.85809232 C39.2335085,8.02095999 39.1038265,8.16845494 38.934472,8.16845494" id="Shape" fill="#0079C1"></path>
                                <path d="M23.7740041,8.16841339 L22.1815601,8.16841339 C22.0292691,8.16841339 21.8867895,8.09487365 21.8014724,7.97189195 L19.6045566,4.82090125 L18.6737469,7.84891024 C18.6153046,8.03836855 18.4361387,8.16841339 18.2330839,8.16841339 L16.6679414,8.16841339 C16.478964,8.16841339 16.3458693,7.98726466 16.406871,7.81317907 L18.1601378,2.80001271 L16.5109579,0.533576231 C16.3817025,0.355751335 16.5122377,0.109787926 16.7361951,0.109787926 L18.3269328,0.109787926 C18.4775175,0.109787926 18.6187173,0.181665746 18.7048876,0.302154578 L24.0005211,7.74670248 C24.127217,7.92494285 23.9966818,8.16841339 23.7740041,8.16841339" id="Shape" fill="#00457C"></path>
                                <path d="M40.8018078,10.9223726 L39.4439858,2.50809735 C39.4175375,2.34522969 39.546793,2.19773474 39.7161474,2.19773474 L41.0820745,2.19773474 C41.3081649,2.19773474 41.5009815,2.35810953 41.5359616,2.57582038 L42.8750137,10.8388614 C42.901462,11.001729 42.7722066,11.149224 42.6024255,11.149224 L41.074396,11.149224 C40.9383151,11.149224 40.8227105,11.0532484 40.8018078,10.9223726" id="Shape" fill="#0079C1"></path>
                            </g>
                        </g>
                    </g>
                </g>
            </g>
        </g>
    </g>
</svg>