<?xml version="1.0" encoding="UTF-8"?>
<svg width="68px" height="17px" viewBox="0 0 68 17" version="1.1" xmlns="http://www.w3.org/2000/svg" xmlns:xlink="http://www.w3.org/1999/xlink">
    <!-- Generator: Sketch 45.2 (43514) - http://www.bohemiancoding.com/sketch -->
    <title>PayPal</title>
    <desc>Created with Sketch.</desc>
    <defs></defs>
    <g id="Symbols" stroke="none" stroke-width="1" fill="none" fill-rule="evenodd">
        <g id="Desktop-Footer" transform="translate(-1100.000000, -417.000000)" fill-rule="nonzero">
            <g id="Footer">
                <g id="accepted-payment" transform="translate(0.000000, 380.000000)">
                    <g id="logos" transform="translate(1100.000000, 34.000000)">
                        <g id="PayPal" transform="translate(0.000000, 3.000000)">
                            <path d="M25.3415161,3.70106452 L21.5910968,3.70106452 C21.3344516,3.70106452 21.1161935,3.88751613 21.0761613,4.14087097 L19.5593226,13.7579355 C19.5291613,13.9476774 19.676129,14.1187742 19.8686129,14.1187742 L21.6590968,14.1187742 C21.9157419,14.1187742 22.134,13.9323226 22.1740323,13.6784194 L22.583129,11.0845484 C22.6226129,10.8306452 22.8414194,10.6441935 23.0975161,10.6441935 L24.2847742,10.6441935 C26.7552581,10.6441935 28.1810645,9.44870968 28.5534194,7.07967742 C28.7212258,6.04322581 28.5605484,5.22887097 28.0752258,4.65854839 C27.5421935,4.03229032 26.5967742,3.70106452 25.3415161,3.70106452 Z M25.7741935,7.21348387 C25.5690968,8.55922581 24.540871,8.55922581 23.5466452,8.55922581 L22.9807097,8.55922581 L23.3777419,6.04596774 C23.4013226,5.89406452 23.5329355,5.78219355 23.6864839,5.78219355 L23.945871,5.78219355 C24.623129,5.78219355 25.262,5.78219355 25.592129,6.16825806 C25.789,6.39858065 25.8493226,6.74077419 25.7741935,7.21348387 Z" id="Shape" fill="#253B80"></path>
                            <path d="M36.5521935,7.17016129 L34.7562258,7.17016129 C34.6032258,7.17016129 34.4710645,7.28203226 34.4474839,7.43393548 L34.3679677,7.93625806 L34.2423871,7.75419355 C33.8535806,7.18990323 32.9865806,7.00125806 32.1212258,7.00125806 C30.1366129,7.00125806 28.4415484,8.5043871 28.1114194,10.6129355 C27.9397742,11.6647419 28.1838065,12.6704839 28.7804516,13.371871 C29.3277419,14.0167742 30.1108387,14.2854839 31.0425484,14.2854839 C32.6416452,14.2854839 33.5283871,13.2572581 33.5283871,13.2572581 L33.4483226,13.7562903 C33.4181613,13.947129 33.565129,14.1182258 33.7565161,14.1182258 L35.3742581,14.1182258 C35.6314516,14.1182258 35.8486129,13.9317742 35.8891935,13.677871 L36.8598387,7.531 C36.8905484,7.34180645 36.744129,7.17016129 36.5521935,7.17016129 Z M34.0488065,10.6655806 C33.8755161,11.6916129 33.0611613,12.3803871 32.0225161,12.3803871 C31.501,12.3803871 31.0842258,12.213129 30.8166129,11.8961613 C30.5511935,11.5813871 30.4502903,11.1333548 30.5347419,10.6343226 C30.6965161,9.61706452 31.5245806,8.90580645 32.5473226,8.90580645 C33.0573226,8.90580645 33.4719032,9.07525806 33.745,9.39496774 C34.0186452,9.71796774 34.1272258,10.1687419 34.0488065,10.6655806 Z" id="Shape" fill="#253B80"></path>
                            <path d="M46.1171613,7.17016129 L44.3124194,7.17016129 C44.1402258,7.17016129 43.9784516,7.25570968 43.8808387,7.39883871 L41.3917097,11.0653548 L40.3366129,7.54196774 C40.2702581,7.32151613 40.0668065,7.17016129 39.8364839,7.17016129 L38.063,7.17016129 C37.8474839,7.17016129 37.6977742,7.38074194 37.7663226,7.58364516 L39.7542258,13.4173871 L37.8853226,16.0556774 C37.7383548,16.2635161 37.8864194,16.5492258 38.1403226,16.5492258 L39.942871,16.5492258 C40.1139677,16.5492258 40.2740968,16.465871 40.3711613,16.3254839 L46.3738065,7.66096774 C46.5174839,7.45367742 46.3699677,7.17016129 46.1171613,7.17016129 Z" id="Shape" fill="#253B80"></path>
                            <path d="M52.0923871,3.70106452 L48.3414194,3.70106452 C48.0853226,3.70106452 47.8670645,3.88751613 47.8270323,4.14087097 L46.3101935,13.7579355 C46.2800323,13.9476774 46.427,14.1187742 46.6183871,14.1187742 L48.5432258,14.1187742 C48.722,14.1187742 48.875,13.9882581 48.9029677,13.8105806 L49.3334516,11.0845484 C49.3729355,10.8306452 49.5917419,10.6441935 49.8478387,10.6441935 L51.0345484,10.6441935 C53.5055806,10.6441935 54.9308387,9.44870968 55.3037419,7.07967742 C55.4720968,6.04322581 55.3103226,5.22887097 54.825,4.65854839 C54.2925161,4.03229032 53.3476452,3.70106452 52.0923871,3.70106452 Z M52.5250645,7.21348387 C52.3205161,8.55922581 51.2922903,8.55922581 50.2975161,8.55922581 L49.732129,8.55922581 L50.1297097,6.04596774 C50.1532903,5.89406452 50.2838065,5.78219355 50.4379032,5.78219355 L50.6972903,5.78219355 C51.374,5.78219355 52.0134194,5.78219355 52.3435484,6.16825806 C52.5404194,6.39858065 52.6001935,6.74077419 52.5250645,7.21348387 Z" id="Shape" fill="#179BD7"></path>
                            <path d="M63.3025161,7.17016129 L61.5076452,7.17016129 C61.3535484,7.17016129 61.2224839,7.28203226 61.1994516,7.43393548 L61.1199355,7.93625806 L60.9938065,7.75419355 C60.605,7.18990323 59.7385484,7.00125806 58.8731935,7.00125806 C56.8885806,7.00125806 55.1940645,8.5043871 54.8639355,10.6129355 C54.6928387,11.6647419 54.9357742,12.6704839 55.5324194,13.371871 C56.0808065,14.0167742 56.8628065,14.2854839 57.7945161,14.2854839 C59.3936129,14.2854839 60.2803548,13.2572581 60.2803548,13.2572581 L60.2002903,13.7562903 C60.170129,13.947129 60.3170968,14.1182258 60.5095806,14.1182258 L62.1267742,14.1182258 C62.382871,14.1182258 62.601129,13.9317742 62.6411613,13.677871 L63.6123548,7.531 C63.6419677,7.34180645 63.495,7.17016129 63.3025161,7.17016129 Z M60.799129,10.6655806 C60.6269355,11.6916129 59.8114839,12.3803871 58.7728387,12.3803871 C58.2524194,12.3803871 57.8345484,12.213129 57.5669355,11.8961613 C57.3015161,11.5813871 57.2017097,11.1333548 57.2850645,10.6343226 C57.4479355,9.61706452 58.2749032,8.90580645 59.2976452,8.90580645 C59.8076452,8.90580645 60.2222258,9.07525806 60.4953226,9.39496774 C60.7700645,9.71796774 60.8786452,10.1687419 60.799129,10.6655806 Z" id="Shape" fill="#179BD7"></path>
                            <path d="M65.4198387,3.96483871 L63.8805161,13.7579355 C63.8503548,13.9476774 63.9973226,14.1187742 64.1887097,14.1187742 L65.7362581,14.1187742 C65.9934516,14.1187742 66.2117097,13.9323226 66.2511935,13.6784194 L67.769129,4.06190323 C67.7992903,3.87216129 67.6523226,3.70051613 67.4609355,3.70051613 L65.7280323,3.70051613 C65.5750323,3.70106452 65.4434194,3.81293548 65.4198387,3.96483871 Z" id="Shape" fill="#179BD7"></path>
                            <path d="M3.98458065,15.9876774 L4.2713871,14.1659355 L3.63251613,14.151129 L0.58183871,14.151129 L2.70190323,0.708516129 C2.70848387,0.667935484 2.72987097,0.630096774 2.76112903,0.603225806 C2.7923871,0.576354839 2.83241935,0.561548387 2.87409677,0.561548387 L8.01796774,0.561548387 C9.72564516,0.561548387 10.904129,0.916903226 11.5194194,1.61829032 C11.807871,1.94732258 11.9915806,2.29116129 12.0804194,2.66954839 C12.1736452,3.06658065 12.1752903,3.54093548 12.0842581,4.11948387 L12.0776774,4.16170968 L12.0776774,4.53241935 L12.366129,4.69583871 C12.6090645,4.82470968 12.8020968,4.97222581 12.9501613,5.14112903 C13.1969355,5.42245161 13.3565161,5.78 13.4239677,6.20390323 C13.4936129,6.63987097 13.4705806,7.15864516 13.3565161,7.74596774 C13.2249032,8.42158065 13.012129,9.01 12.7247742,9.49148387 C12.4604516,9.93512903 12.1237419,10.3030968 11.7239677,10.5882581 C11.3422903,10.8591613 10.8887742,11.0648065 10.3760323,11.1964194 C9.87919355,11.3258387 9.31270968,11.3910968 8.6913871,11.3910968 L8.29106452,11.3910968 C8.00480645,11.3910968 7.72677419,11.4941935 7.50851613,11.679 C7.28970968,11.8676452 7.14493548,12.1253871 7.10051613,12.4072581 L7.07035484,12.5712258 L6.56364516,15.7820323 L6.5406129,15.8999355 C6.53458065,15.9372258 6.52416129,15.955871 6.50880645,15.9684839 C6.49509677,15.98 6.47535484,15.9876774 6.45616129,15.9876774 L3.98458065,15.9876774 Z" id="Shape" fill="#253B80"></path>
                            <path d="M12.6392258,4.20448387 L12.6392258,4.20448387 L12.6392258,4.20448387 C12.623871,4.30264516 12.6063226,4.403 12.5865806,4.50609677 C11.9082258,7.98890323 9.58745161,9.19206452 6.62341935,9.19206452 L5.11425806,9.19206452 C4.75177419,9.19206452 4.44632258,9.45529032 4.38983871,9.81283871 L4.38983871,9.81283871 L4.38983871,9.81283871 L3.61716129,14.7132258 L3.39835484,16.1022903 C3.3616129,16.337 3.54258065,16.5486774 3.77948387,16.5486774 L6.45616129,16.5486774 C6.77312903,16.5486774 7.0423871,16.3183548 7.09229032,16.0057742 L7.1186129,15.8697742 L7.62258065,12.6715806 L7.65493548,12.4960968 C7.70429032,12.1824194 7.97409677,11.9520968 8.29106452,11.9520968 L8.6913871,11.9520968 C11.2847097,11.9520968 13.3148387,10.8991935 13.9081935,7.85235484 C14.1560645,6.57954839 14.0277419,5.51677419 13.371871,4.76932258 C13.1733548,4.54393548 12.927129,4.35693548 12.6392258,4.20448387 Z" id="Shape" fill="#179BD7"></path>
                            <path d="M11.9296129,3.92151613 C11.8259677,3.89135484 11.7190323,3.86393548 11.6093548,3.83925806 C11.499129,3.81512903 11.3861613,3.79374194 11.2699032,3.77509677 C10.863,3.70929032 10.4171613,3.67803226 9.93951613,3.67803226 L5.90777419,3.67803226 C5.80851613,3.67803226 5.71419355,3.70051613 5.62974194,3.74109677 C5.44383871,3.83048387 5.30564516,4.00651613 5.27219355,4.22203226 L4.41451613,9.65435484 L4.38983871,9.81283871 C4.44632258,9.45529032 4.75177419,9.19206452 5.11425806,9.19206452 L6.62341935,9.19206452 C9.58745161,9.19206452 11.9082258,7.98835484 12.5865806,4.50609677 C12.606871,4.403 12.623871,4.30264516 12.6392258,4.20448387 C12.4675806,4.11345161 12.2816774,4.03558065 12.0815161,3.96922581 C12.0321613,3.95277419 11.9811613,3.93687097 11.9296129,3.92151613 Z" id="Shape" fill="#222D65"></path>
                            <path d="M5.27219355,4.22203226 C5.30564516,4.00651613 5.44383871,3.83048387 5.62974194,3.74164516 C5.71474194,3.70106452 5.80851613,3.67858065 5.90777419,3.67858065 L9.93951613,3.67858065 C10.4171613,3.67858065 10.863,3.70983871 11.2699032,3.77564516 C11.3861613,3.79429032 11.499129,3.81567742 11.6093548,3.83980645 C11.7190323,3.86448387 11.8259677,3.89190323 11.9296129,3.92206452 C11.9811613,3.93741935 12.0321613,3.95332258 12.0820645,3.96922581 C12.2822258,4.03558065 12.468129,4.114 12.6397742,4.20448387 C12.8415806,2.91741935 12.638129,2.04109677 11.9422258,1.24758065 C11.1750323,0.374 9.79035484,0 8.01851613,0 L2.87464516,0 C2.51270968,0 2.20396774,0.263225806 2.14803226,0.621322581 L0.00548387097,14.202129 C-0.0367419355,14.4708387 0.170548387,14.7132258 0.441451613,14.7132258 L3.61716129,14.7132258 L4.41451613,9.65435484 L5.27219355,4.22203226 Z" id="Shape" fill="#253B80"></path>
                        </g>
                    </g>
                </g>
            </g>
        </g>
    </g>
</svg>