<?xml version="1.0" encoding="UTF-8"?>
<svg width="52px" height="17px" viewBox="0 0 52 17" version="1.1" xmlns="http://www.w3.org/2000/svg" xmlns:xlink="http://www.w3.org/1999/xlink">
    <!-- Generator: Sketch 45.2 (43514) - http://www.bohemiancoding.com/sketch -->
    <title>Visa Logo</title>
    <desc>Created with Sketch.</desc>
    <defs>
        <path d="M26.4192937,11.0144619 C26.3901486,8.75917709 28.4671226,7.5005535 30.031756,6.75230479 C31.63934,5.98448418 32.1792919,5.49217567 32.1731561,4.80565371 C32.1608844,3.75479334 30.8907703,3.29108992 29.7019558,3.27302355 C27.6280497,3.24140741 26.4223617,3.82254222 25.4636403,4.26215716 L24.7166045,0.831052897 C25.6783938,0.395954551 27.4593147,0.0165608367 29.3061956,0 C33.6411503,0 36.4774316,2.1002152 36.4927712,5.35667791 C36.5096447,9.48935944 30.668347,9.71820009 30.7082298,11.5654862 C30.7220354,12.1255435 31.2665891,12.7232392 32.4600055,12.8752978 C33.0505779,12.9520798 34.6811712,13.0107955 36.5295861,12.1752261 L37.2551464,15.494921 C36.2611441,15.8502263 34.9833602,16.1904762 33.3926497,16.1904762 C29.3123314,16.1904762 26.4423031,14.0616559 26.4192937,11.0144619 M44.2269684,15.9044254 C43.435448,15.9044254 42.7681779,15.4512607 42.4705908,14.7557055 L36.2780176,0.243895959 L40.6099043,0.243895959 L41.4719866,2.581985 L46.7656627,2.581985 L47.2657318,0.243895959 L51.0837438,0.243895959 L47.7519952,15.9044254 L44.2269684,15.9044254 M44.8328803,11.6738844 L46.083053,5.79328179 L42.6592672,5.79328179 L44.8328803,11.6738844 M21.1670345,15.9044254 L17.7524523,0.243895959 L21.8803232,0.243895959 L25.2933713,15.9044254 L21.1670345,15.9044254 M15.0603627,15.9044254 L10.7637568,5.24526865 L9.0257867,14.3085629 C8.82177079,15.3202795 8.01644482,15.9044254 7.1221495,15.9044254 L0.0981730709,15.9044254 L0,15.4497551 C1.44191698,15.1426269 3.0801801,14.6473073 4.07264849,14.1173605 C4.68009436,13.7936715 4.85343119,13.5106317 5.05284524,12.7413056 L8.34471102,0.243895959 L12.7072769,0.243895959 L19.3953173,15.9044254 L15.0603627,15.9044254" id="path-1"></path>
        <linearGradient x1="16.1481739%" y1="34.4008407%" x2="85.8318643%" y2="66.3485849%" id="linearGradient-3">
            <stop stop-color="#222357" offset="0%"></stop>
            <stop stop-color="#254AA5" offset="100%"></stop>
        </linearGradient>
    </defs>
    <g id="Symbols" stroke="none" stroke-width="1" fill="none" fill-rule="evenodd">
        <g id="Desktop-Footer" transform="translate(-1288.000000, -419.000000)">
            <g id="Footer">
                <g id="accepted-payment" transform="translate(0.000000, 380.000000)">
                    <g id="logos" transform="translate(1100.000000, 34.000000)">
                        <g id="Visa-Logo" transform="translate(188.000000, 5.000000)">
                            <mask id="mask-2" fill="white">
                                <use xlink:href="#path-1"></use>
                            </mask>
                            <g id="path10273" transform="translate(25.541872, 8.095238) scale(-1, 1) rotate(-180.000000) translate(-25.541872, -8.095238) "></g>
                            <polyline id="path10283" fill="url(#linearGradient-3)" fill-rule="nonzero" mask="url(#mask-2)" transform="translate(25.960591, 8.095238) scale(-1, 1) rotate(-180.000000) translate(-25.960591, -8.095238) " points="-5.02463054 14.2396657 45.4606301 32.3809524 56.9458128 1.95081051 6.46106501 -16.1904762"></polyline>
                        </g>
                    </g>
                </g>
            </g>
        </g>
    </g>
</svg>