<?xml version="1.0" encoding="UTF-8"?>
<svg width="69px" height="41px" viewBox="0 0 69 41" version="1.1" xmlns="http://www.w3.org/2000/svg" xmlns:xlink="http://www.w3.org/1999/xlink">
    <!-- Generator: Sketch 45.2 (43514) - http://www.bohemiancoding.com/sketch -->
    <title>Visa-light</title>
    <desc>Created with Sketch.</desc>
    <defs>
        <path d="M0,4.99422945 C0,2.23599269 2.23104733,0 4.99277507,0 L363.007225,0 C365.764658,0 368,2.24713778 368,4.99422945 L368,105.005771 C368,107.764007 365.768953,110 363.007225,110 L4.99277507,110 C2.23534154,110 0,107.752862 0,105.005771 L0,4.99422945 Z" id="path-1"></path>
        <rect id="path-2" x="0" y="0" width="68.9655172" height="40" rx="4"></rect>
        <filter x="-0.7%" y="-1.2%" width="101.4%" height="105.0%" filterUnits="objectBoundingBox" id="filter-3">
            <feOffset dx="0" dy="1" in="SourceAlpha" result="shadowOffsetOuter1"></feOffset>
            <feComposite in="shadowOffsetOuter1" in2="SourceAlpha" operator="out" result="shadowOffsetOuter1"></feComposite>
            <feColorMatrix values="0 0 0 0 0   0 0 0 0 0   0 0 0 0 0  0 0 0 0.1 0" type="matrix" in="shadowOffsetOuter1"></feColorMatrix>
        </filter>
        <path d="M21.7570654,9.07073337 C21.7330636,7.21343996 23.4435128,6.17692641 24.7320343,5.56072159 C26.0559271,4.92839874 26.5005933,4.5229682 26.4955403,3.95759717 C26.4854342,3.09218275 25.4394579,2.71030934 24.4604342,2.69543116 C22.7525115,2.66939433 21.7595919,3.14797595 20.9700567,3.51001178 L20.3548508,0.684396504 C21.1469126,0.326080218 22.6135533,0.0136383361 24.134514,0 C27.7044767,0 30.0402378,1.72958899 30.0528704,4.41138181 C30.0667662,7.8147666 25.2562857,8.00322361 25.2891304,9.52451801 C25.3004997,9.98574174 25.7489557,10.4779617 26.7317692,10.6031864 C27.218123,10.6664187 28.5609645,10.7147728 30.0831885,10.0266567 L30.6807088,12.7605232 C29.8621187,13.0531275 28.8098261,13.3333333 27.4998291,13.3333333 C24.1395671,13.3333333 21.7760143,11.5801872 21.7570654,9.07073337 M36.4222093,13.0977621 C35.770369,13.0977621 35.2208524,12.7245676 34.9757807,12.1517575 L29.8760145,0.200855496 L33.4434506,0.200855496 L34.1534007,2.12634059 L38.5128987,2.12634059 L38.9247203,0.200855496 L42.0689655,0.200855496 L39.3251726,13.0977621 L36.4222093,13.0977621 M36.9211956,9.61378712 L37.9507496,4.77093795 L35.1311612,4.77093795 L36.9211956,9.61378712 M17.4316754,13.0977621 L14.6196666,0.200855496 L18.0190897,0.200855496 L20.8298352,13.0977621 L17.4316754,13.0977621 M12.4026516,13.0977621 L8.86427035,4.319633 L7.43300081,11.7835224 C7.26498771,12.6167008 6.60177809,13.0977621 5.86529959,13.0977621 L0.0808484113,13.0977621 L0,12.7233278 C1.18746104,12.4703986 2.5366189,12.0624884 3.35394581,11.6260616 C3.85419536,11.3594941 3.99694333,11.1264026 4.16116667,10.4928399 L6.87211496,0.200855496 L10.4648162,0.200855496 L15.9726143,13.0977621 L12.4026516,13.0977621" id="path-4"></path>
        <linearGradient x1="16.1481739%" y1="34.4008407%" x2="85.8318643%" y2="66.3485849%" id="linearGradient-6">
            <stop stop-color="#222357" offset="0%"></stop>
            <stop stop-color="#254AA5" offset="100%"></stop>
        </linearGradient>
    </defs>
    <g id="Checkout" stroke="none" stroke-width="1" fill="none" fill-rule="evenodd">
        <g id="1-Desktop-checkout-Delivery-Billing-Address" transform="translate(-1033.000000, -640.000000)">
            <g id="Order-Summary" transform="translate(972.000000, 173.000000)">
                <g id="accepted-payments" transform="translate(1.000000, 417.000000)">
                    <g id="bg-copy">
                        <use fill="#FFFFFF" fill-rule="evenodd" xlink:href="#path-1"></use>
                        <path stroke="#E5E5E5" stroke-width="1" d="M0.5,4.99422945 L0.5,105.005771 C0.5,107.480774 2.51553128,109.5 4.99277507,109.5 L363.007225,109.5 C365.491228,109.5 367.5,107.489448 367.5,105.005771 L367.5,4.99422945 C367.5,2.51922616 365.484469,0.5 363.007225,0.5 L4.99277507,0.5 C2.50877197,0.5 0.5,2.51055158 0.5,4.99422945 Z"></path>
                    </g>
                    <g id="credit-cards" transform="translate(60.000000, 50.000000)">
                        <g id="Visa-light">
                            <g id="Rectangle">
                                <use fill="black" fill-opacity="1" filter="url(#filter-3)" xlink:href="#path-2"></use>
                                <use fill="#FFFFFF" fill-rule="evenodd" xlink:href="#path-2"></use>
                                <rect stroke="#E5E5E5" stroke-width="1" x="0.5" y="0.5" width="67.9655172" height="39" rx="4"></rect>
                            </g>
                            <g id="Visa-Logo" transform="translate(13.793103, 13.333333)">
                                <mask id="mask-5" fill="white">
                                    <use xlink:href="#path-4"></use>
                                </mask>
                                <g id="path10273" transform="translate(21.034483, 6.666667) scale(-1, 1) rotate(-180.000000) translate(-21.034483, -6.666667) "></g>
                                <polyline id="path10283" fill="url(#linearGradient-6)" fill-rule="nonzero" mask="url(#mask-5)" transform="translate(21.379310, 6.666667) scale(-1, 1) rotate(-180.000000) translate(-21.379310, -6.666667) " points="-4.13793103 11.7267835 37.438166 26.6666667 46.8965517 1.60654983 5.32087706 -13.3333333"></polyline>
                            </g>
                        </g>
                    </g>
                </g>
            </g>
        </g>
    </g>
</svg>