<?xml version="1.0" standalone="no"?>
<!DOCTYPE svg PUBLIC "-//W3C//DTD SVG 1.1//EN" "http://www.w3.org/Graphics/SVG/1.1/DTD/svg11.dtd" >
<svg xmlns="http://www.w3.org/2000/svg">
<metadata>Generated by IcoMoon</metadata>
<defs>
<font id="builder-depot-icons" horiz-adv-x="1024">
<font-face units-per-em="1024" ascent="960" descent="-64" />
<missing-glyph horiz-adv-x="1024" />
<glyph unicode="&#x20;" horiz-adv-x="512" d="" />
<glyph unicode="&#xe900;" glyph-name="account-newsletter" d="M939.063 785.641c-0.217-0.206-0.432-0.415-0.644-0.628l-370.347-370.347c-31.043-31.043-81.111-31.043-112.155 0l-370.347 370.347c-0.212 0.212-0.426 0.42-0.642 0.625 9.214 2.411 18.883 3.694 28.849 3.694h796.444c9.963 0 19.629-1.283 28.84-3.692zM995.268 751.113c17.871-20.099 28.732-46.568 28.732-75.558v-455.111c0-62.805-50.972-113.778-113.778-113.778h-796.444c-62.805 0-113.778 50.972-113.778 113.778v455.111c0 28.986 10.857 55.451 28.723 75.548 1.566-5.257 4.424-10.211 8.575-14.362l370.347-370.347c57.703-57.703 150.995-57.703 208.698 0l370.347 370.347c4.154 4.154 7.013 9.111 8.578 14.372z" />
<glyph unicode="&#xe901;" glyph-name="account-wishlist" d="M1024 629.045c0-55.159-15.36-108.589-44.563-155.099l-6.447-8.649-52.527-58.042-408.462-449.922-466.868 515.844c-29.772 47.279-45.132 100.709-45.132 155.868 0 158.943 127.621 288.288 284.444 288.288 91.022 0 174.649-43.628 227.556-115.123 52.907 71.495 136.533 115.123 227.556 115.123 156.824 0 284.444-129.345 284.444-288.288z" />
<glyph unicode="&#xe902;" glyph-name="in-stock" d="M532.48 263.68h163.84v122.88h-368.64v-122.88h163.84v122.88h40.96v-122.88zM737.28 263.68h81.92v286.72h-614.4v-286.72h81.92v163.84h450.56v-163.84zM163.84 550.4h-40.96v81.92h778.24v-81.92h-40.96v-327.68h-696.32v327.68zM512 960c282.747 0 512-229.253 512-512s-229.253-512-512-512c-282.747 0-512 229.253-512 512s229.253 512 512 512zM512 919.040c-259.727 0-471.040-211.313-471.040-471.040s211.313-471.040 471.040-471.040c259.727 0 471.040 211.313 471.040 471.040s-211.313 471.040-471.040 471.040zM286.72 468.48v40.96h450.56v-40.96h-450.56z" />
<glyph unicode="&#xe903;" glyph-name="address-book" d="M256 960h682.667c23.564 0 42.667-19.103 42.667-42.667v-938.667c0-23.564-19.103-42.667-42.667-42.667h-682.667c-23.564 0-42.667 19.103-42.667 42.667v938.667c0 23.564 19.103 42.667 42.667 42.667zM149.333 256h-85.506c-23.434 0-42.494-19.083-42.494-42.622v-42.756c0-23.459 19.025-42.622 42.494-42.622h85.506v128zM213.333 256h85.506c23.469 0 42.494-19.163 42.494-42.622v-42.756c0-23.54-19.059-42.622-42.494-42.622h-85.506v128zM149.333 512h-85.506c-23.434 0-42.494-19.083-42.494-42.622v-42.756c0-23.459 19.025-42.622 42.494-42.622h85.506v128zM213.333 512h85.506c23.469 0 42.494-19.163 42.494-42.622v-42.756c0-23.54-19.059-42.622-42.494-42.622h-85.506v128zM149.333 768h-85.506c-23.434 0-42.494-19.083-42.494-42.622v-42.756c0-23.459 19.025-42.622 42.494-42.622h85.506v128zM213.333 768h85.506c23.469 0 42.494-19.163 42.494-42.622v-42.756c0-23.54-19.059-42.622-42.494-42.622h-85.506v128z" />
<glyph unicode="&#xe904;" glyph-name="my-orders" d="M308.706 899.765c0-66.719 53.884-120.471 120.459-120.471h180.729c66.721 0 120.459 53.894 120.459 120.471h138.049c23.559 0 42.657-19.252 42.657-42.655v-878.454c0-23.558-18.969-42.655-42.657-42.655h-697.745c-23.559 0-42.657 19.252-42.657 42.655v878.454c0 23.558 18.969 42.655 42.657 42.655h138.049zM248.471 598.588v-60.235h542.118v60.235h-542.118zM248.471 417.882v-60.235h542.118v60.235h-542.118zM248.471 237.176v-60.235h542.118v60.235h-542.118zM368.941 899.765c0 33.267 26.992 60.235 60.224 60.235h180.729c33.261 0 60.224-27.036 60.224-60.235 0-33.267-26.992-60.235-60.224-60.235h-180.729c-33.261 0-60.224 27.036-60.224 60.235z" />
<glyph unicode="&#xe905;" glyph-name="account-dashboard" d="M0 960h438.857v-438.857h-438.857v438.857zM585.143 960h438.857v-438.857h-438.857v438.857zM0 374.857h438.857v-438.857h-438.857v438.857zM585.143 374.857h438.857v-438.857h-438.857v438.857z" />
<glyph unicode="&#xe906;" glyph-name="basket-delete" d="M645.548 447.979l378.452 378.452-133.569 133.569-378.452-378.452-378.41 378.41-133.569-133.569 378.41-378.41-378.41-378.41 133.569-133.569 378.41 378.41 378.452-378.452 133.569 133.569-378.452 378.452z" />
<glyph unicode="&#xe907;" glyph-name="secure-padlock" d="M181.333 561.778h654.222c23.564 0 42.667-19.103 42.667-42.667v-540.444c0-23.564-19.103-42.667-42.667-42.667h-654.222c-23.564 0-42.667 19.103-42.667 42.667v540.444c0 23.564 19.103 42.667 42.667 42.667zM252.444 704.451c0 141.136 114.903 255.549 256 255.549 141.385 0 256-114.744 256-255.549v-228.458c0-141.136-114.903-255.549-256-255.549-141.385 0-256 114.744-256 255.549v228.458zM366.222 704.451v-228.458c0-78.059 63.767-141.771 142.222-141.771 78.423 0 142.222 63.637 142.222 141.771v228.458c0 78.059-63.767 141.771-142.222 141.771-78.423 0-142.222-63.637-142.222-141.771z" />
<glyph unicode="&#xe908;" glyph-name="breadcrumb" d="M64 85.333l106.667-149.333 789.333 512-789.333 512-106.667-149.333 576-362.667z" />
<glyph unicode="&#xe909;" glyph-name="facebook" d="M0 448c0 282.77 229.168 512 512 512 282.77 0 512-229.168 512-512 0-282.77-229.168-512-512-512-282.77 0-512 229.168-512 512zM515.819 217.6v210.191h71.506l10.705 81.917h-82.211v52.3c0 23.717 6.674 39.878 41.144 39.878l43.963 0.020v73.265c-7.605 0.997-33.701 3.227-64.061 3.227-63.385 0-106.778-38.174-106.778-108.281v-60.411h-71.687v-81.917h71.687v-210.191h85.732z" />
<glyph unicode="&#xe90a;" glyph-name="twitter" d="M0 448c0 282.77 229.168 512 512 512 282.77 0 512-229.168 512-512 0-282.77-229.168-512-512-512-282.77 0-512 229.168-512 512zM411.218 211.2c216.972 0 335.647 179.76 335.647 335.647 0 5.106 0 10.189-0.345 15.248 23.087 16.699 43.016 37.376 58.854 61.062-21.53-9.54-44.369-15.796-67.755-18.56 24.626 14.743 43.057 37.931 51.863 65.248-23.156-13.741-48.49-23.425-74.908-28.634-36.566 38.882-94.67 48.399-141.73 23.213s-71.372-78.809-59.304-130.802c-94.85 4.755-183.222 49.555-243.122 123.251-31.31-53.901-15.318-122.857 36.522-157.474-18.773 0.556-37.137 5.621-53.542 14.765v-1.495c0.015-56.154 39.598-104.52 94.641-115.639-17.367-4.736-35.589-5.429-53.266-2.024 15.454-48.055 59.741-80.974 110.211-81.922-41.772-32.829-93.374-50.651-146.503-50.598-9.386 0.018-18.762 0.586-28.082 1.702 53.947-34.62 116.718-52.983 180.818-52.898v-0.092z" />
<glyph unicode="&#xe90b;" glyph-name="instagram" d="M648.751 554.020c-17.067 0-30.72 13.675-30.72 30.72 0 16.853 13.653 30.507 30.72 30.507 16.853 0 30.507-13.653 30.507-30.507 0-17.045-13.653-30.72-30.507-30.72zM512.004 316.58c-72.555 0-131.413 58.88-131.413 131.413 0 72.555 58.859 131.413 131.413 131.413 72.533 0 131.413-58.859 131.413-131.413 0-72.533-58.88-131.413-131.413-131.413zM720.41 551.46c-3.179 68.907-35.627 101.76-104.96 104.96-27.072 1.28-35.179 1.493-103.445 1.493s-76.373-0.213-103.467-1.493c-69.333-3.2-101.76-36.053-104.96-104.96-1.28-27.093-1.493-35.2-1.493-103.467s0.213-76.373 1.493-103.445c3.2-68.715 35.392-101.781 104.96-104.96 27.093-1.301 35.2-1.515 103.467-1.515 68.48 0 76.373 0.213 103.445 1.515 69.333 3.179 101.781 36.032 104.96 104.96 1.301 27.072 1.515 34.965 1.515 103.445 0 68.267-0.213 76.373-1.515 103.467zM597.333 448c0-47.147-38.187-85.333-85.333-85.333s-85.333 38.187-85.333 85.333c0 47.147 38.187 85.333 85.333 85.333s85.333-38.187 85.333-85.333zM767.994 341.329c-5.739-91.925-57.6-143.573-149.333-149.333-28.373 0.213-37.12 0-106.667 0-69.525 0-78.293 0.213-106.667 0-91.925 5.76-143.573 57.408-149.333 149.333 0.213 28.373 0 37.12 0 106.667s0.213 78.293 0 106.667c5.76 91.947 57.621 143.573 149.333 149.333 28.373-0.213 37.141 0 106.667 0 69.547 0 78.293-0.213 106.667 0 91.947-5.76 143.595-57.6 149.333-149.333-0.192-28.373 0-37.12 0-106.667s-0.192-78.293 0-106.667zM511.994 959.996c-282.667 0-512-229.333-512-512s229.333-512 512-512c282.667 0 512 229.333 512 512s-229.333 512-512 512z" />
<glyph unicode="&#xe90c;" glyph-name="account" d="M202.437 375.322c74.897-81.19 182.13-132.122 301.029-132.122 119.577 0 227.355 51.514 302.307 133.513 97.699-94.555 158.493-234.768 158.493-389.513v-51.2h-921.6v56.525c0 152.741 61.876 289.743 159.771 382.797zM503.467 960c169.626 0 307.2-137.574 307.2-307.2s-137.574-307.2-307.2-307.2c-169.626 0-307.2 137.574-307.2 307.2s137.574 307.2 307.2 307.2z" />
<glyph unicode="&#xe90d;" glyph-name="carousel-left" d="M776.983 960l-584.983-512 584.983-512 66.653 70.516-512.047 441.484 512.047 441.484z" />
<glyph unicode="&#xe90e;" glyph-name="carousel-right" d="M258.653-64l584.983 512-584.983 512-66.653-70.516 512.047-441.484-512.047-441.484z" />
<glyph unicode="&#xe90f;" glyph-name="cart" d="M233.492 361.813l22.953-122.88h726.595v42.372h-683.854l-15.038 80.508h589.324l150.528 409.6h-816.364l-15.302 81.92h-192.334v-42.372h149.593l51.126-273.701 27.633-175.446h5.14zM368.64 197.973c45.22 0 81.92-36.7 81.92-81.92s-36.7-81.92-81.92-81.92c-45.22 0-81.92 36.7-81.92 81.92s36.7 81.92 81.92 81.92zM819.2 197.973c45.22 0 81.92-36.7 81.92-81.92s-36.7-81.92-81.92-81.92c-45.22 0-81.92 36.7-81.92 81.92s36.7 81.92 81.92 81.92z" />
<glyph unicode="&#xe910;" glyph-name="delivery" d="M953.555 301.609h-58.192c-16.571 41.213-55.908 70.295-101.719 70.295s-85.149-29.082-101.707-70.295h-26.894v336.791h167.663l120.849-126.062v-210.729zM793.645 196.18c-33.066 0-59.948 27.786-59.948 61.936s26.894 61.936 59.948 61.936c33.053 0 59.948-27.799 59.948-61.936 0-34.15-26.882-61.936-59.948-61.936v0zM349.362 196.18c-33.066 0-59.948 27.786-59.948 61.936s26.894 61.936 59.948 61.936c33.053 0 59.96-27.799 59.96-61.936 0-34.15-26.894-61.936-59.96-61.936v0zM1002.667 535.529l-149.942 155.332h-188.386v77.139h-527.253v-141.421h-112.024c-13.834 0-25.061-11.519-25.061-25.713s11.227-25.713 25.061-25.713h237.845c13.834 0 25.061 11.519 25.061 25.713s-11.227 25.713-25.061 25.713h-75.698v89.995h427.008v-411.407h-163.538c-16.503 40.986-55.849 69.914-101.686 69.914-45.825 0-85.158-28.927-101.674-69.914h-60.11v115.721h144.829c13.834 0 25.061 11.519 25.061 25.713s-11.227 25.713-25.061 25.713h-144.829v51.413h-50.123v-51.413h-42.892c-13.834 0-25.061-11.519-25.061-25.713s11.227-25.713 25.061-25.713h42.892v-167.16h102.313c4.235-58.266 51.714-104.395 109.593-104.395 57.892 0 105.358 46.129 109.606 104.395l224.6 0.193c4.16-58.368 51.676-104.587 109.606-104.587s105.446 46.219 109.606 104.587h100.258v281.608z" />
<glyph unicode="&#xe911;" glyph-name="dropdown-menu-down" d="M942.706 789.333l-430.706-512-430.706 512-81.294-76.060 512-606.606 512 606.606z" />
<glyph unicode="&#xe912;" glyph-name="dropdown-menu-up" d="M81.294 106.667l430.706 512 430.706-512 81.294 76.060-512 606.606-512-606.606z" />
<glyph unicode="&#xe913;" glyph-name="faq" d="M512-10.105c253.005 0 458.105 205.101 458.105 458.105s-205.101 458.105-458.105 458.105c-253.005 0-458.105-205.101-458.105-458.105s205.101-458.105 458.105-458.105zM512-64c-282.77 0-512 229.23-512 512s229.23 512 512 512c282.77 0 512-229.23 512-512s-229.23-512-512-512zM468.357 313.859h86.289v-83.683h-86.289v83.683zM420.29 639.327c22.779 14.671 50.77 22.007 83.973 22.007 43.628 0 79.871-10.424 108.731-31.273s43.29-51.735 43.29-92.66c0-25.096-6.274-46.233-18.822-63.414-7.336-10.424-21.427-23.744-42.276-39.96l-20.559-15.926c-11.196-8.687-18.628-18.821-22.296-30.404-2.317-7.336-3.571-18.725-3.764-34.168h-78.182c1.158 32.624 4.247 55.162 9.266 67.613s17.953 26.784 38.801 43l21.138 16.505c6.95 5.212 12.548 10.907 16.795 17.084 7.722 10.617 11.582 22.296 11.582 35.037 0 14.671-4.295 28.039-12.886 40.104s-24.275 18.098-47.054 18.098c-22.393 0-38.27-7.432-47.633-22.296s-14.044-30.307-14.044-46.33h-83.683c2.317 55.017 21.524 94.011 57.623 116.983z" />
<glyph unicode="&#xe914;" glyph-name="filter-delete" d="M589.88 442.528l205.159 205.159-72.408 72.408-205.159-205.159-205.136 205.136-72.408-72.408 205.136-205.136-205.136-205.136 72.408-72.408 205.136 205.136 205.159-205.159 72.408 72.408-205.159 205.159zM1024 448c0-282.77-229.23-512-512-512s-512 229.23-512 512c0 282.77 229.23 512 512 512s512-229.23 512-512z" />
<glyph unicode="&#xe915;" glyph-name="filter-minus" d="M0 576h1024v-256h-1024z" />
<glyph unicode="&#xe916;" glyph-name="filter-tick" d="M138.252 592.989l253.071-253.071 492.082 492.082 140.595-140.595-632.677-632.677-391.323 393.666z" />
<glyph unicode="&#xe917;" glyph-name="filter-view-more" d="M384 960h256v-1024h-256v1024zM0 576h1024v-256h-1024z" />
<glyph unicode="&#xe918;" glyph-name="footer-back-to-top" d="M64 149.333c-16.384 0-32.832 6.272-45.312 18.816-24.96 25.024-24.96 65.536 0.128 90.496l449.088 448c24.96 24.896 65.344 24.896 90.368 0l446.912-445.824c25.088-24.896 25.088-65.472 0.128-90.496-25.024-25.088-65.472-24.96-90.496-0.128l-401.728 400.768-403.904-402.944c-12.48-12.416-28.8-18.688-45.184-18.688z" />
<glyph unicode="&#xe919;" glyph-name="google-plus" d="M0 448c0 282.77 229.168 512 512 512 282.77 0 512-229.168 512-512 0-282.77-229.168-512-512-512-282.77 0-512 229.168-512 512zM806.829 492.112v78.555h-55.444v-78.555h-79.84v-56.111h79.84v-80.8h55.444v80.8h77.622v56.111h-77.622zM403.195 496.601v-89.777c0 0 86.058 0.117 121.099 0.117-18.975-58.2-48.48-89.894-121.099-89.894-73.49 0-130.849 60.292-130.849 134.666s57.358 134.666 130.849 134.666c38.855 0 63.949-13.821 86.968-33.085 18.425 18.647 16.886 21.304 63.763 66.105-39.793 36.656-92.683 59.002-150.731 59.002-123.71 0-223.995-101.491-223.995-226.688 0-125.195 100.285-226.688 223.995-226.688 184.911 0 230.107 162.946 215.124 271.577h-215.124z" />
<glyph unicode="&#xe91a;" glyph-name="grid" d="M0 960h448v-448h-448v448zM0 384h448v-448h-448v448zM576 384h448v-448h-448v448zM576 960h448v-448h-448v448z" />
<glyph unicode="&#xe91b;" glyph-name="hero-carousel-left" d="M793.054 960l-601.054-502.75 601.054-521.25 47.479 47.514-546.133 473.737 546.133 455.305z" />
<glyph unicode="&#xe91c;" glyph-name="hero-carousel-right" d="M239.479-64l601.054 502.75-601.054 521.25-47.479-47.514 546.133-473.737-546.133-455.305z" />
<glyph unicode="&#xe91d;" glyph-name="dropdown-sort-by" d="M1024 746.667h-1024l512-597.333z" />
<glyph unicode="&#xe91e;" glyph-name="grid-sml" d="M106.667 849.067h362.667v-362.667h-362.667v362.667zM106.667 398.933h362.667v-362.667h-362.667v362.667zM556.8 398.933h362.667v-362.667h-362.667v362.667zM556.8 849.067h362.667v-362.667h-362.667v362.667z" />
<glyph unicode="&#xe91f;" glyph-name="locator" d="M876.914 423.619c-12.016-182.553-157.981-328.518-340.534-340.534v-147.086h-48.762v147.086c-182.553 12.016-328.518 157.981-340.534 340.534h-147.086v48.762h147.086c12.016 182.553 157.981 328.518 340.534 340.534v147.086h48.762v-147.086c182.553-12.016 328.518-157.981 340.534-340.534h147.086v-48.762h-147.086zM512 277.333c94.257 0 170.667 76.41 170.667 170.667s-76.41 170.667-170.667 170.667c-94.257 0-170.667-76.41-170.667-170.667s76.41-170.667 170.667-170.667z" />
<glyph unicode="&#xe920;" glyph-name="mobile-menu-left" d="M696.661-64l101.815 107.959-381.294 404.041 381.294 404.041-101.815 107.959-483.328-512z" />
<glyph unicode="&#xe921;" glyph-name="mobile-menu-down" d="M1024 644.852l-107.959 101.815-404.041-381.294-404.041 381.294-107.959-101.815 512-483.328z" />
<glyph unicode="&#xe922;" glyph-name="mobile-menu" d="M0 21.333h1024v106.667h-1024v-106.667zM0 384h1024v106.667h-1024v-106.667zM0 768h1024v106.667h-1024v-106.667z" />
<glyph unicode="&#xe923;" glyph-name="menu-close-mobile" d="M512 527.507l-432.493 432.493-79.507-79.507 432.493-432.493-432.493-432.493 79.507-79.507 432.493 432.493 432.493-432.493 79.507 79.507-432.493 432.493 432.493 432.493-79.507 79.507-432.493-432.493z" />
<glyph unicode="&#xe924;" glyph-name="search" d="M766.54 275.35l240.5-240.5c22.613-22.613 22.613-59.276 0-81.89s-59.276-22.613-81.89 0l-240.5 240.5c-71.645-54.465-161.037-86.794-257.983-86.794-235.653 0-426.667 191.014-426.667 426.667s191.014 426.667 426.667 426.667c235.653 0 426.667-191.014 426.667-426.667 0-96.947-32.328-186.338-86.794-257.983zM113.778 533.333c0-172.815 140.074-312.889 312.889-312.889s312.889 140.074 312.889 312.889c0 172.815-140.074 312.889-312.889 312.889s-312.889-140.074-312.889-312.889z" />
<glyph unicode="&#xe925;" glyph-name="store-locator-star" d="M512 110.92l-316.433-174.92 60.433 370.487-256 262.38 353.783 54.053 158.217 337.080 158.217-337.080 353.783-54.053-256-262.38 60.433-370.487z" />
<glyph unicode="&#xe926;" glyph-name="store-locator" d="M521.697 354.909c-128.559 0-232.727 104.169-232.727 232.727s104.169 232.727 232.727 232.727c128.559 0 232.727-104.169 232.727-232.727s-104.169-232.727-232.727-232.727zM521.697 960c-205.265 0-372.364-167.331-372.364-372.969 0-123.718 89.181-289.745 163.887-407.226 49.059-77.033 93.044-135.121 114.921-162.816 60.975-77.405 73.635-80.989 92.579-80.989h1.955c18.944 0 31.651 3.584 92.579 80.989 21.876 27.695 65.908 85.783 114.921 162.816 74.752 117.481 163.887 283.508 163.887 407.226 0 205.638-167.098 372.969-372.364 372.969z" />
<glyph unicode="&#xe927;" glyph-name="telephone-outline" d="M957.895 170.403c0 2.204-0.099 2.881-0.419 3.945 1.366-4.131-12.606 5.611-36.881 17.832-8.339 4.835-20.252 11.469-35.862 19.968-15.122 8.172-29.642 16.162-43.727 24.043-12.633 7.092-24.943 14.254-39.32 23.018-1.718 1.227-7.425 5.201-16.604 11.559-8.455 5.817-15.1 9.868-19.467 11.998-2.432 1.148-4.098 1.554-5.331 1.554 1.516 0-3.23-2.705-11.228-10.249-12.428-11.843-23.653-24.478-33.675-37.941-12.193-16.402-25.166-31.605-38.989-45.685-18.457-18.751-35.425-29.273-54.924-29.273-8.549 0-17.218 1.955-26.627 5.452-7.431 2.72-13.166 5.098-16.923 7.051-4.372 2.117-9.734 5.266-19.245 11.139-6.268 3.842-11.122 6.764-11.651 7.052-64.861 35.944-120.606 77.213-167.24 123.918-46.675 46.604-87.982 102.401-125.39 170.209 0.807-1.884 0.827-1.917-5.582 8.574-5.39 8.716-8.894 14.714-11.112 19.197-2.092 4.274-4.367 9.772-7.111 17.080-3.458 9.446-5.35 18.199-5.35 26.694 0 19.384 10.563 36.506 29.206 54.856 13.84 13.623 29.017 26.591 45.562 38.981 13.679 10.214 26.35 21.465 38.055 33.811 7.601 7.936 10.258 12.592 10.258 11.134 0 1.18-0.41 2.865-1.378 4.898-2.396 4.918-6.466 11.604-12.241 19.901-6.305 9.165-10.137 14.664-13.016 18.817-7.478 12.537-14.561 24.759-21.493 37.14-7.429 13.235-15.471 27.826-24.039 43.624-7.744 14.248-14.544 26.444-20.928 37.669-11.287 22.525-21.074 36.599-19.409 36.146-10.706-0.618-24.339-2.556-41.936-6.58-17.877-4.118-31.544-8.303-41.188-12.518-14.151-5.942-33.886-28.679-55.844-68.335-20.627-38.037-30.74-74.829-30.74-110.761 0-10.675 0.699-21.076 2.088-31.24 1.351-9.887 3.877-21.424 7.651-34.727 3.867-13.888 6.935-24.002 9.12-30.145 2.831-7.997 7.638-21.016 13.806-37.285 7.173-19.296 11.048-29.887 12.336-33.737 15.124-42.265 32.95-79.846 53.482-112.858 34.273-55.573 81.549-113.578 141.831-173.893 60.358-60.325 118.287-107.515 174.112-141.896 32.816-20.463 70.376-38.29 111.923-53.168 5.064-1.674 17.321-6.162 34.585-12.677 17.44-6.56 30.141-11.253 37.131-13.728 5.96-2.11 15.887-5.133 30.217-9.199 13.007-3.638 24.713-6.178 34.655-7.573 10.151-1.387 20.585-2.088 31.24-2.088 36.041 0 72.829 10.086 110.54 30.548 39.862 22.132 62.582 41.877 68.8 56.647 4.039 9.075 8.198 22.654 12.288 40.675 4.028 17.326 5.981 31.057 5.981 40.427zM1024 170.403c0-15.125-2.623-33.567-7.659-55.227-4.927-21.709-10.273-39.164-16.050-52.128-13.113-31.185-45.677-59.484-97.656-88.342-47.322-25.68-94.835-38.706-142.35-38.706-13.63 0-27.054 0.902-40.309 2.713-13.152 1.846-27.696 5.001-43.512 9.425-15.712 4.458-26.726 7.811-34.356 10.512-7.498 2.655-20.526 7.469-38.373 14.182-16.412 6.193-28.142 10.488-32.79 12.035-46.607 16.678-88.421 36.525-125.234 59.48-60.364 37.176-122.227 87.57-186.034 151.343-63.721 63.756-114.194 125.683-151.287 185.83-23.034 37.032-42.867 78.847-59.734 125.999-1.17 3.481-5.007 13.967-11.772 32.167-6.252 16.488-11.22 29.943-14.218 38.41-2.8 7.872-6.257 19.267-10.462 34.369-4.528 15.96-7.707 30.474-9.509 43.665-1.796 13.146-2.696 26.537-2.696 40.189 0 47.42 13.057 94.924 38.874 142.528 28.672 51.785 56.981 84.4 87.771 97.325 13.489 5.901 30.848 11.217 52.444 16.192 22.075 5.048 40.29 7.638 55.381 7.638 10.397 0 19.199-1.244 24.816-3.744 20.283-6.817 34.452-27.19 54.151-66.624 5.765-10.039 12.814-22.682 20.809-37.392 8.435-15.551 16.322-29.863 23.607-42.839 6.642-11.862 13.425-23.566 18.718-32.781 1.732-2.323 5.627-7.912 12.487-17.886 7.47-10.731 13.237-20.205 17.43-28.813 5.18-10.861 7.936-22.181 7.936-33.602 0-19.662-10.321-37.75-28.507-56.736-14.187-14.965-29.677-28.72-46.324-41.149-14.182-10.62-27.103-21.661-38.776-33.151-7.092-6.981-9.474-10.842-9.474-7.745 0 0.242 0.317-1.225 1.224-3.706 1.969-5.241 3.523-8.997 4.446-10.883 0.947-1.913 3.694-6.617 8.089-13.723 5.72-9.144 8.644-13.908 8.577-14.184 33.028-59.561 70.657-110.389 112.848-152.515 42.155-42.219 92.925-79.805 152.188-112.65 1.812-0.976 6.643-3.884 14.598-8.761 7.513-4.639 11.856-7.189 14.179-8.326 1.544-0.798 5.032-2.244 10.227-4.146 2.813-1.045 4.239-1.367 3.75-1.367-3.064 0 0.748 2.364 7.783 9.51 11.657 11.874 22.669 24.778 33.091 38.799 12.291 16.511 26.002 31.944 41.231 46.456 19.288 18.196 37.167 28.383 56.711 28.383 11.435 0 22.635-2.727 33.917-8.056 8.159-3.975 17.412-9.616 28.433-17.198 9.604-6.652 15.378-10.672 15.294-10.738 11.644-7 23.387-13.834 35.398-20.576 13.767-7.704 28.004-15.537 42.927-23.603 16.175-8.807 28.556-15.702 35.714-19.923 41.11-20.577 61.522-34.81 67.238-52.511 3.49-8.085 4.795-17.001 4.795-27.417z" />
<glyph unicode="&#xe928;" glyph-name="pagination-left" d="M810.667-64v1024l-597.333-512z" />
<glyph unicode="&#xe929;" glyph-name="pagination-right" d="M213.333 960v-1024l597.333 512z" />
<glyph unicode="&#xe92a;" glyph-name="mobile-menu-right" d="M315.148 960l-101.815-107.959 381.294-404.041-381.294-404.041 101.815-107.959 483.328 512z" />
<glyph unicode="&#xe92b;" glyph-name="tick-black-bullet" d="M512-64c-282.77 0-512 229.23-512 512s229.23 512 512 512c282.77 0 512-229.23 512-512s-229.23-512-512-512zM340.098 502.782l-67.031-68.167 189.732-190.868 306.753 306.753-68.167 68.167-238.585-238.585-122.701 122.701z" />
<glyph unicode="&#xe92c;" glyph-name="trolley" d="M143.36 917.333h20.48v-696.32h860.16v-40.96h-901.12v696.32h-107.985c-8.226 0-14.895 9.169-14.895 20.48s6.669 20.48 14.895 20.48h128.465zM812.594 57.173c0 45.22 36.7 81.92 81.92 81.92s81.92-36.7 81.92-81.92c0-45.22-36.7-81.92-81.92-81.92s-81.92 36.7-81.92 81.92zM157.234 57.173c0 45.22 36.7 81.92 81.92 81.92s81.92-36.7 81.92-81.92c0-45.22-36.7-81.92-81.92-81.92s-81.92 36.7-81.92 81.92zM890.55 302.933h-655.36v286.72h655.36v-286.72zM532.48 671.573h-286.72v163.84h286.72v-163.84z" />
<glyph unicode="&#xe92d;" glyph-name="exclamation-mark" d="M512-64c-282.77 0-512 229.23-512 512s229.23 512 512 512c282.77 0 512-229.23 512-512s-229.23-512-512-512zM443.733 755.2v-162.067l35.967-298.133h64.567l35.1 298.133v162.067h-135.633zM446.767 243.867v-125.233h129.133v125.233h-129.133z" />
<glyph unicode="&#xe92e;" glyph-name="telephone-black" d="M161.449 959.070c-7.081 1.416-15.579 1.416-21.244-1.416-76.478-29.741-124.63-138.793-135.96-213.854-35.406-243.595 157.204-454.617 334.235-593.409 157.204-123.214 458.866-325.738 637.313-130.295 22.66 24.076 49.569 59.483 48.153 94.889-4.249 59.483-59.483 101.97-101.97 134.544-32.574 24.076-100.554 90.64-143.041 89.224-38.239-1.416-62.315-41.071-86.391-65.148l-42.488-42.488c-7.081-7.081-97.721 52.401-107.635 59.483-36.823 24.076-72.229 50.985-103.386 80.726s-59.483 62.315-83.559 96.305c-7.081 9.914-65.148 96.305-59.483 103.386 0 0 49.569 53.818 63.731 75.061 29.741 45.32 52.401 80.726 18.411 134.544-12.746 19.828-28.325 35.406-45.32 52.401-29.741 28.325-59.483 58.066-93.473 82.143-18.411 14.163-49.569 39.655-77.894 43.904z" />
<glyph unicode="&#xe92f;" glyph-name="quantity-minus" d="M1024 512h-1024v-128h1024z" />
<glyph unicode="&#xe930;" glyph-name="list-view" d="M0 810.667h1024v-163.84h-1024v163.84zM0 523.947h1024v-163.84h-1024v163.84zM0 237.227h1024v-163.84h-1024v163.84z" />
<glyph unicode="&#xe931;" glyph-name="pdf-download" d="M768 243.2h-512v102.4h-51.2v-153.6h614.4v153.6h-51.2v-102.4zM512-64c-282.77 0-512 229.23-512 512s229.23 512 512 512c282.77 0 512-229.23 512-512s-229.23-512-512-512zM512 281.977l217.223 217.223h-434.446l217.223-217.223zM460.8 806.4v-307.2h102.4v307.2h-102.4z" />
<glyph unicode="&#xe932;" glyph-name="quantity-plus" d="M576 512v448h-128v-448h-448v-128h448v-448h128v448h448v128h-448z" />
<glyph unicode="&#xe933;" glyph-name="mobile-filter-icon" d="M180.378 163.556c23.429 66.286 86.646 113.778 160.955 113.778s137.526-47.491 160.955-113.778h464.831c31.414 0 56.881-25.534 56.881-56.889 0-31.419-25.312-56.889-56.881-56.889h-464.831c-23.429-66.286-86.646-113.778-160.955-113.778s-137.526 47.491-160.955 113.778h-123.497c-31.414 0-56.881 25.534-56.881 56.889 0 31.419 25.313 56.889 56.881 56.889h123.497zM843.622 391.111c-23.429-66.286-86.646-113.778-160.955-113.778s-137.526 47.491-160.955 113.778h-464.831c-31.414 0-56.881 25.534-56.881 56.889 0 31.419 25.313 56.889 56.881 56.889h464.831c23.429 66.286 86.646 113.778 160.955 113.778s137.526-47.491 160.955-113.778h123.497c31.414 0 56.881-25.534 56.881-56.889 0-31.419-25.312-56.889-56.881-56.889h-123.497zM180.378 846.222c23.429 66.286 86.646 113.778 160.955 113.778s137.526-47.491 160.955-113.778h464.831c31.414 0 56.881-25.534 56.881-56.889 0-31.419-25.312-56.889-56.881-56.889h-464.831c-23.429-66.286-86.646-113.778-160.955-113.778s-137.526 47.491-160.955 113.778h-123.497c-31.414 0-56.881 25.534-56.881 56.889 0 31.419 25.313 56.889 56.881 56.889h123.497zM341.333 732.444c31.419 0 56.889 25.47 56.889 56.889s-25.47 56.889-56.889 56.889c-31.419 0-56.889-25.47-56.889-56.889s25.47-56.889 56.889-56.889zM682.667 504.889c-31.419 0-56.889-25.47-56.889-56.889s25.47-56.889 56.889-56.889c31.419 0 56.889 25.47 56.889 56.889s-25.47 56.889-56.889 56.889zM341.333 49.778c31.419 0 56.889 25.47 56.889 56.889s-25.47 56.889-56.889 56.889c-31.419 0-56.889-25.47-56.889-56.889s25.47-56.889 56.889-56.889z" />
<glyph unicode="&#xe934;" glyph-name="credit-cards" d="M42.667 789.333h938.667c23.564 0 42.667-19.103 42.667-42.667v-597.333c0-23.564-19.103-42.667-42.667-42.667h-938.667c-23.564 0-42.667 19.103-42.667 42.667v597.333c0 23.564 19.103 42.667 42.667 42.667v0zM56.889 448v-56.889h568.889v56.889h-568.889zM0 675.556v-113.778h1024v113.778h-1024z" />
</font>
</defs>
</svg>
